<?xml version="1.0" standalone="no"?>
<!DOCTYPE svg PUBLIC "-//W3C//DTD SVG 20010904//EN"
 "http://www.w3.org/TR/2001/REC-SVG-20010904/DTD/svg10.dtd">
<svg version="1.0" xmlns="http://www.w3.org/2000/svg"
 width="200.000000pt" height="200.000000pt">
  <!-- width="300.000000pt" height="300.000000pt" -->
<metadata>
Created by potrace 1.16, written by Peter Selinger 2001-2019
</metadata>
<g transform="translate(-100.000000,380.000000) scale(0.100000,-0.100000)"
 stroke="none" fill="white">
<path d="M2520 3276 c0 -2 8 -33 18 -68 15 -54 17 -110 17 -413 0 -303 -2
-359 -17 -413 -10 -35 -18 -66 -18 -68 0 -2 56 -4 125 -4 69 0 125 2 125 4 0
2 -8 33 -17 68 -16 54 -18 110 -18 413 0 303 2 359 18 413 9 35 17 66 17 68 0
2 -56 4 -125 4 -69 0 -125 -2 -125 -4z"/>
<path d="M2210 2966 c0 -2 8 -33 17 -68 16 -54 18 -111 18 -413 0 -302 -2
-359 -18 -413 -9 -35 -17 -66 -17 -68 0 -2 56 -4 125 -4 69 0 125 2 125 4 0 2
-8 33 -17 68 -16 54 -18 110 -18 413 0 303 2 359 18 413 9 35 17 66 17 68 0 2
-56 4 -125 4 -69 0 -125 -2 -125 -4z"/>
</g>
</svg>
